<?xml version="1.0" encoding="utf-8"?>
<!-- Generator: Adobe Illustrator 27.5.0, SVG Export Plug-In . SVG Version: 6.00 Build 0)  -->
<svg version="1.1"
	 id="svg4" xmlns:dc="http://purl.org/dc/elements/1.1/" xmlns:svg="http://www.w3.org/2000/svg" xmlns:rdf="http://www.w3.org/1999/02/22-rdf-syntax-ns#" xmlns:cc="http://creativecommons.org/ns#"
	 xmlns="http://www.w3.org/2000/svg" xmlns:xlink="http://www.w3.org/1999/xlink" x="0px" y="0px" viewBox="0 0 528.4 90.4"
	 style="enable-background:new 0 0 528.4 90.4;" xml:space="preserve">
<style type="text/css">
	.st0{fill:#8F8563;}
</style>
<path id="path2" class="st0" d="M213.9,0v72h16V41.6h31.5V72h16V0h-16v27.7h-31.5V0H213.9L213.9,0z M40,0.1l-9.1,16.3L0,72.1h19.2
	l21.3-38.5l21.4,38.5h18L49.5,17.4L40,0.1z M441.1,16.3c-11.6,0-20.1,7-20.1,16.7c0,12.3,11.7,15.7,19.4,17.9c6.7,1.9,9.7,3.1,9.7,5
	s-1.8,5.2-8.7,5.2c-0.8,0-7.5-0.1-7.5-5h-13.9c0,11,9,18.9,21.3,18.9c14.8,0,22.6-9.6,22.6-19.1c0-12.6-11.8-16-19.7-18.3
	c-6.3-1.8-9.4-3-9.4-4.6c0-1.9,3.7-2.9,6.2-2.9c8.1,0,8.1,3.2,8.1,4.4h13.9C463.1,23.2,454.7,16.3,441.1,16.3L441.1,16.3z M114,17.8
	C99.1,17.8,87,30,87,45v27h13.9V45c0-7.4,5.9-13.3,13.2-13.3c7.3,0,13.2,5.9,13.2,13.3v27H141V45C141,30,128.9,17.8,114,17.8
	L114,17.8z M317.3,17.8c-15.2,0-27.6,12.4-27.6,27.6c0,15.2,12.4,27.6,27.6,27.6c15.2,0,27.5-12.4,27.5-27.6
	C344.8,30.2,332.5,17.8,317.3,17.8L317.3,17.8z M501.4,17.8c-15.2,0-27.6,12.4-27.6,27.6c0,15.2,12.4,27.6,27.6,27.6
	c11.9,0,22.2-7.6,26-18.3h-15.9c-2.5,2.7-6.1,4.5-10.1,4.5c-5.7,0-10.7-3.5-12.7-8.5h39.7c0.4-1.6,0.6-3.4,0.6-5.2
	c0-1.6-0.2-3.3-0.5-4.8C526.2,27.7,514.8,17.8,501.4,17.8L501.4,17.8z M146,18.7l21.3,47.8l-10.5,23.9h16L204,18.7h-16l-12.8,29.5
	L162,18.7H146L146,18.7z M355.1,18.7v27c0,14.9,12.1,27,27,27c14.9,0,27-12.1,27-27v-27h-13.8v27c0,7.3-5.9,13.3-13.2,13.3
	S369,53,369,45.7v-27H355.1L355.1,18.7z M317.3,31.7c7.6,0,13.8,6.2,13.8,13.8c0,7.6-6.2,13.8-13.8,13.8c-7.7,0-13.8-6.2-13.8-13.8
	C303.5,37.9,309.6,31.7,317.3,31.7z M501.4,31.7c5.8,0,10.9,3.7,12.8,8.9h-25.7C490.4,35.4,495.4,31.7,501.4,31.7z"/>
</svg>
